# xmcd CD database file
#
# Track frame offsets:
#	150
#	34381
#	77983
#	118809
#	217687
#	276826
#
# Disc length: 4380 seconds
#
# Revision: 0
# Processed by: cddbd v1.5.2PL0 Copyright (c) Steve Scherf et al.
# Submitted via: CDex 1.50Beta5
#
DISCID=52111a06
DTITLE=Movimiento - Prohibido
DYEAR=1900
DGENRE=Jazz
TTITLE0=Comenso
TTITLE1=Adelante
TTITLE2=Un Movimiento
TTITLE3=Prohibido (Cortito)
TTITLE4=Bonustrack: Asi Naci (Completo)
TTITLE5=Bonustrack: Historias (Larga)
EXTD=
EXTT0=
EXTT1=
EXTT2=
EXTT3=
EXTT4=
EXTT5=
PLAYORDER=
